<svg width="812" height="812" viewBox="0 0 812 812" fill="none" xmlns="http://www.w3.org/2000/svg">
<path d="M405.159 800.232C623.352 800.232 800.232 623.352 800.232 405.159C800.232 186.967 623.352 10.0869 405.159 10.0869C186.967 10.0869 10.0869 186.967 10.0869 405.159C10.0869 623.352 186.967 800.232 405.159 800.232Z" fill="#457EFF"/>
<path fill-rule="evenodd" clip-rule="evenodd" d="M305.971 181.565C299.246 213.507 265.623 391.71 258.899 428.696C252.174 465.681 282.435 497.623 311.014 497.623H356.406C368.174 497.623 386.667 506.029 379.942 537.971C373.217 568.232 366.493 600.174 359.768 630.435C353.043 660.695 388.348 672.464 403.478 648.927C418.609 625.391 531.246 445.507 543.014 421.971C554.783 398.435 534.609 361.449 502.667 361.449H440.464C423.652 361.449 421.971 349.681 427.014 324.464C433.739 299.246 440.464 267.304 452.232 220.232C464 173.159 418.609 147.942 395.072 147.942H337.913C331.188 147.942 312.696 149.623 305.971 181.565Z" fill="white"/>
</svg>
